<?xml version="1.0" encoding="utf-8"?>
<!-- Generator: Adobe Illustrator 25.4.1, SVG Export Plug-In . SVG Version: 6.00 Build 0)  -->
<svg version="1.1" id="Capa_1" xmlns="http://www.w3.org/2000/svg" xmlns:xlink="http://www.w3.org/1999/xlink" x="0px" y="0px"
	 viewBox="0 0 283.46 283.46" style="enable-background:new 0 0 283.46 283.46;" xml:space="preserve">
<style type="text/css">
	.st0{fill:#FFFFFF;}
	.st1{fill:#EC8674;}
</style>
<g>
	<path class="st0" d="M242.83,142.59c0,55.97-45.42,101.35-101.45,101.35c-56.03,0-101.45-45.38-101.45-101.35
		c0-55.98,45.42-101.35,101.45-101.35C197.4,41.24,242.83,86.61,242.83,142.59"/>
	<path class="st1" d="M238.42,142.23c0,53.36-43.26,96.63-96.63,96.63c-53.36,0-96.62-43.26-96.62-96.63
		c0-53.37,43.26-96.62,96.62-96.62C195.16,45.61,238.42,88.87,238.42,142.23"/>
	<path class="st1" d="M246.79,142.53c0-1.79-1.32-3.25-3.03-3.53c-1.87-53.57-44.87-96.68-98.4-98.72
		c-0.43-1.51-1.79-2.61-3.43-2.61c-1.63,0-2.98,1.09-3.42,2.58c-54.15,1.49-97.79,45.01-99.49,99.11c-1.15,0.6-1.95,1.79-1.95,3.17
		c0,1.39,0.8,2.57,1.95,3.17c1.6,54.21,45.31,97.86,99.56,99.33c0.5,1.38,1.8,2.37,3.36,2.37c1.57,0,2.88-1.01,3.37-2.41
		c53.63-2.01,96.71-45.24,98.47-98.93C245.47,145.79,246.79,144.32,246.79,142.53 M145.27,242.59c-0.5-1.37-1.81-2.35-3.35-2.35
		c-1.55,0-2.85,0.98-3.36,2.36c-52.7-1.67-95.16-43.95-97.11-96.58c1.58-0.37,2.77-1.79,2.77-3.49c0-1.71-1.2-3.12-2.79-3.48
		c1.64-52.86,44.14-95.42,96.98-97.17c0.3,1.67,1.75,2.95,3.52,2.95c1.76,0,3.22-1.27,3.52-2.95c52.74,1.88,95.12,44.43,96.72,97.24
		c-1.46,0.45-2.53,1.8-2.53,3.4c0,1.61,1.06,2.95,2.51,3.41C240.24,198.53,197.9,240.79,145.27,242.59"/>
	<path class="st1" d="M143.87,19.5c1.73-4.89-1.95-7.02-1.95-7.02v0.01v-0.01c0,0-3.68,2.13-1.95,7.02c0,0-9.38-4.37-8.8,6.33
		c0,0,5.12-8.22,10.76,0c5.63-8.22,10.75,0,10.75,0C153.24,15.13,143.87,19.5,143.87,19.5"/>
	<path class="st1" d="M149.94,29.81c0,0,1.61-4.09-2.28-4.35c-3.88-0.26-5.75,3.4-5.75,3.4s-1.87-3.66-5.75-3.4
		c-3.89,0.26-2.28,4.35-2.28,4.35s-4.54-0.42-4.71,4.36c-0.17,4.79,5.9,2.8,5.9,2.8s-1.55-0.52-1.46-2.37
		c0.09-1.86,1.72-2.76,3.67-2.85c1.94-0.08,4.04,1.77,4.63,2.67c0.59-0.91,2.69-2.76,4.63-2.67c1.94,0.09,3.58,0.99,3.67,2.85
		c0.08,1.85-1.47,2.37-1.47,2.37s6.08,1.99,5.91-2.8C154.48,29.39,149.94,29.81,149.94,29.81"/>
	<path class="st1" d="M143.87,265.57c1.73,4.89-1.95,7.02-1.95,7.02s-3.68-2.13-1.95-7.02c0,0-9.38,4.37-8.8-6.33
		c0,0,5.12,8.23,10.76,0c5.63,8.23,10.75,0,10.75,0C153.24,269.94,143.87,265.57,143.87,265.57"/>
	<path class="st1" d="M149.94,255.26c0,0,1.61,4.09-2.28,4.35c-3.88,0.26-5.75-3.41-5.75-3.41s-1.87,3.66-5.75,3.41
		c-3.89-0.26-2.28-4.35-2.28-4.35s-4.54,0.43-4.71-4.36c-0.17-4.79,5.9-2.8,5.9-2.8s-1.55,0.51-1.46,2.37
		c0.09,1.85,1.72,2.76,3.67,2.85c1.94,0.09,4.04-1.77,4.63-2.67c0.59,0.9,2.69,2.76,4.63,2.67c1.94-0.09,3.58-1,3.67-2.85
		c0.08-1.86-1.47-2.37-1.47-2.37s6.08-1.98,5.91,2.8C154.48,255.68,149.94,255.26,149.94,255.26"/>
	<path class="st1" d="M202.06,60.3c-1.06-2.51-1.03-3.39-1.66-4.55c-1-1.86-2.87-1.36-2.87-1.36c2.51-0.67,1.28-6.22,1.28-6.22
		s-5.52,1.37-5.01,3.92c0,0-0.39-1.89-2.5-1.96c-1.32-0.04-2.09,0.38-4.81,0.53c-3.22,0.2,5.63,4.27,7.58,5.15
		C195.74,57.15,203.32,63.26,202.06,60.3"/>
	<path class="st1" d="M167.95,44.03c-1.91-1.94-2.2-2.77-3.21-3.63c-1.61-1.36-3.17-0.22-3.17-0.22c2.1-1.55-1.08-6.26-1.08-6.26
		s-4.64,3.29-3.22,5.48c0,0-1.05-1.62-3.05-0.91c-1.24,0.44-1.81,1.11-4.28,2.26c-2.92,1.35,6.81,1.9,8.94,2.01
		C160.92,43.41,170.2,46.33,167.95,44.03"/>
	<path class="st1" d="M226.63,85.72c-0.15-2.71,0.17-3.53-0.02-4.84c-0.31-2.09-2.24-2.25-2.24-2.25c2.59,0.21,3.31-5.43,3.31-5.43
		s-5.66-0.58-6.03,2c0,0,0.27-1.92-1.69-2.69c-1.23-0.48-2.1-0.35-4.71-1.12c-3.09-0.91,3.86,5.92,5.39,7.4
		C221.74,80.62,226.81,88.93,226.63,85.72"/>
	<path class="st1" d="M241.04,119.09c0.84-2.59,1.44-3.23,1.73-4.52c0.47-2.06-1.27-2.91-1.27-2.91c2.34,1.14,5.06-3.86,5.06-3.86
		s-5.07-2.59-6.36-0.32c0,0,0.95-1.69-0.6-3.12c-0.97-0.9-1.83-1.09-3.99-2.75c-2.55-1.96,1.46,6.92,2.35,8.86
		C238.34,112.57,240.05,122.14,241.04,119.09"/>
	<path class="st1" d="M202.06,225.41c-1.06,2.51-1.03,3.39-1.66,4.55c-1,1.86-2.87,1.37-2.87,1.37c2.51,0.67,1.28,6.23,1.28,6.23
		s-5.52-1.37-5.01-3.92c0,0-0.39,1.89-2.5,1.96c-1.32,0.04-2.09-0.38-4.81-0.54c-3.22-0.2,5.63-4.27,7.58-5.14
		C195.74,228.55,203.32,222.45,202.06,225.41"/>
	<path class="st1" d="M167.95,241.68c-1.91,1.95-2.2,2.78-3.21,3.63c-1.61,1.37-3.17,0.22-3.17,0.22c2.1,1.55-1.08,6.27-1.08,6.27
		s-4.64-3.29-3.22-5.48c0,0-1.05,1.61-3.05,0.9c-1.24-0.44-1.81-1.11-4.28-2.26c-2.92-1.35,6.81-1.9,8.94-2
		C160.92,242.29,170.2,239.38,167.95,241.68"/>
	<path class="st1" d="M226.63,199.99c-0.15,2.72,0.17,3.53-0.02,4.84c-0.31,2.09-2.24,2.26-2.24,2.26c2.59-0.22,3.31,5.43,3.31,5.43
		s-5.66,0.58-6.03-2c0,0,0.27,1.91-1.69,2.69c-1.23,0.49-2.1,0.36-4.71,1.12c-3.09,0.91,3.86-5.92,5.39-7.4
		C221.74,205.09,226.81,196.77,226.63,199.99"/>
	<path class="st1" d="M241.04,166.62c0.84,2.59,1.44,3.24,1.73,4.52c0.47,2.07-1.27,2.91-1.27,2.91c2.34-1.14,5.06,3.86,5.06,3.86
		s-5.07,2.59-6.36,0.32c0,0,0.95,1.68-0.6,3.12c-0.97,0.9-1.83,1.09-3.99,2.75c-2.55,1.96,1.46-6.91,2.35-8.86
		C238.34,173.14,240.05,163.56,241.04,166.62"/>
	<path class="st1" d="M81.56,60.3c1.06-2.51,1.03-3.39,1.66-4.55c1-1.86,2.87-1.36,2.87-1.36c-2.52-0.67-1.29-6.22-1.29-6.22
		s5.52,1.37,5,3.92c0,0,0.39-1.89,2.5-1.96c1.32-0.04,2.09,0.38,4.81,0.53c3.21,0.2-5.63,4.27-7.58,5.15
		C87.88,57.15,80.3,63.26,81.56,60.3"/>
	<path class="st1" d="M115.67,44.03c1.91-1.94,2.2-2.77,3.21-3.63c1.61-1.36,3.17-0.22,3.17-0.22c-2.1-1.55,1.09-6.26,1.09-6.26
		s4.63,3.29,3.22,5.48c0,0,1.05-1.62,3.04-0.91c1.24,0.44,1.81,1.11,4.28,2.26c2.92,1.35-6.8,1.9-8.93,2.01
		C122.7,43.41,113.42,46.33,115.67,44.03"/>
	<path class="st1" d="M56.99,85.72c0.15-2.71-0.17-3.53,0.02-4.84c0.31-2.09,2.24-2.25,2.24-2.25c-2.6,0.21-3.32-5.43-3.32-5.43
		s5.66-0.58,6.04,2c0,0-0.28-1.92,1.69-2.69c1.23-0.48,2.1-0.35,4.71-1.12c3.09-0.91-3.86,5.92-5.39,7.4
		C61.87,80.62,56.81,88.93,56.99,85.72"/>
	<path class="st1" d="M42.58,119.09c-0.84-2.59-1.44-3.23-1.73-4.52c-0.47-2.06,1.27-2.91,1.27-2.91c-2.34,1.14-5.05-3.86-5.05-3.86
		s5.06-2.59,6.35-0.32c0,0-0.95-1.69,0.6-3.12c0.97-0.9,1.83-1.09,3.98-2.75c2.55-1.96-1.46,6.92-2.35,8.86
		C45.29,112.57,43.57,122.14,42.58,119.09"/>
	<path class="st1" d="M81.56,225.41c1.06,2.51,1.03,3.39,1.66,4.55c1,1.86,2.87,1.37,2.87,1.37c-2.52,0.67-1.29,6.23-1.29,6.23
		s5.52-1.37,5-3.92c0,0,0.39,1.89,2.5,1.96c1.32,0.04,2.09-0.38,4.81-0.54c3.21-0.2-5.63-4.27-7.58-5.14
		C87.88,228.55,80.3,222.45,81.56,225.41"/>
	<path class="st1" d="M115.67,241.68c1.91,1.95,2.2,2.78,3.21,3.63c1.61,1.37,3.17,0.22,3.17,0.22c-2.1,1.55,1.09,6.27,1.09,6.27
		s4.63-3.29,3.22-5.48c0,0,1.05,1.61,3.04,0.9c1.24-0.44,1.81-1.11,4.28-2.26c2.92-1.35-6.8-1.9-8.93-2
		C122.7,242.29,113.42,239.38,115.67,241.68"/>
	<path class="st1" d="M56.99,199.99c0.15,2.72-0.17,3.53,0.02,4.84c0.31,2.09,2.24,2.26,2.24,2.26c-2.6-0.22-3.32,5.43-3.32,5.43
		s5.66,0.58,6.04-2c0,0-0.28,1.91,1.69,2.69c1.23,0.49,2.1,0.36,4.71,1.12c3.09,0.91-3.86-5.92-5.39-7.4
		C61.87,205.09,56.81,196.77,56.99,199.99"/>
	<path class="st1" d="M42.58,166.62c-0.84,2.59-1.44,3.24-1.73,4.52c-0.47,2.07,1.27,2.91,1.27,2.91c-2.34-1.14-5.05,3.86-5.05,3.86
		s5.06,2.59,6.35,0.32c0,0-0.95,1.68,0.6,3.12c0.97,0.9,1.83,1.09,3.98,2.75c2.55,1.96-1.46-6.91-2.35-8.86
		C45.29,173.14,43.57,163.56,42.58,166.62"/>
	<path class="st1" d="M140.7,9.32l1.21-2.76c0,0,18.06,10.47,18.23,26.34c0,0,3.16-11.96,6.21-7.99c0,0,2.3-5.41-3.74-5.18
		c0,0,7.36-4.49,8.57,3.74c0,0,3.04-1.61,5.63,0c2.59,1.61,0.8,3.85,0.4,4.03c0,0,5.57,1.32,0.97,10.81c0,0,6.1-1.96,6.68,3.05
		c0.57,5-5.92,2.3-4.14,0c0,0,0.46,1.32,1.32,0.4c0,0,2.07-1.5,0.92-2.08c0,0-2.37-2.33-5.06,1.5c0,0-2.93,4.78,3.79,6.04
		c0,0,2.13,0.81,7.08-2.7c0,0-2.36-2.24,1.78-3.34c0,0,2.53-0.4,3.28,0.34c0,0,1.04-1.04-3.62-2.3c0,0,7.88-4.42,13.06,2.94
		c0,0,3.91-7.07,6.9,6.9l2.88,9.66c0,0,7.65-5.58,9.77,2.13c0,0,0.83,3.47-2.41,3.74c0,0-2.42,0-2.37-2.13c0,0-0.14-1.67,2.08-1.64
		c0,0,1.44,0.03,1.78,1.12c0,0,0.12-3.8-3.97-3.39c0,0-4.08,0.06-3.73,4.6c0,0,0.11,5.52,7.07,5.63c0,0,7.02,0.64,7.59,1.67
		c0,0-1.18-4.14-3.62-6.04c0,0,8.3-0.13,8.08,8.03c0,0,3.24-5.09,8.89-4.49c0,0,4.61,1.04,6.51,0.78c0,0,2.2,0,2.89-1.81
		c0,0,0.81,6.67-6.73,4.31c0,0,4.83,7.59-3.32,8.98c0,0,3.88-5.35-3.45-6.17c0,0-4.49-0.39-6.68,5.87c0,0,3.15-3.07,5.09-1.26
		c1.94,1.81,0.13,3.97,0.13,3.97s7.12-3.66,9.45,5.82c0,0-2.24-3.71-8.37-3.27c0,0-7.54,0.17-6.34,9.14
		c0.22,1.66-0.77,2.14-2.33-3.28c0,0,1.81-16.87,0.47-18.55c-1.34-1.68-3.88-2.29-6.6-2.33c0,0-11.5,0.95-11.65-8.46
		c0,0-0.17-2.41-3.58-3.36c0,0-2.54-0.6-2.97,2.67c0,0-1.77-4.96,2.89-5.39c0,0,2.37-0.09,3.75,2.33c0,0-2.93-13.54-14.57-13.28
		c0,0-5.44,0.17-8.67,2.5c-3.24,2.33-7.46,1.64-7.46,1.64s-4.92-1.47-4.96-5.05c0,0-0.3-1.68,1.12-4.19
		c1.42-2.5,0.47-7.72,0.47-7.72s-1.2-4.27-5.74-4.27c-4.53,0-8.71,3.71-9.19,5.14c0,0,4.79-4.31,9.66-4.19
		c4.88,0.13,4.53,7.55,4.53,7.55s-0.3-2.42-2.85-3.88c0,0-0.82-0.86,0-1.42c0,0,0.08-0.78-1.64-0.26c0,0-0.99,0.87-3.06,0.91
		c0,0,2.03,1.64,1.12,2.8c0,0-0.26,0.86-2.63-0.13c0,0-2.54-2.16-5.78,1.16l-1.98,1.47c0,0-0.37-18.81-17.83-26.31L140.7,9.32z"/>
	<path class="st1" d="M270.98,134c-0.29-9.08-9.44-9.89-9.44-9.89c3.28-2.07,2.88-5.46,2.88-5.46c-0.12-5.75-6.32-7.37-6.32-7.37
		c4.49-0.87,4.37-6.95,4.37-6.95c-0.4-8.4-8.22-9.31-8.22-9.31c-6.16-1.04-6.29-4.98-6.29-4.98c-1.98,8.28,6.21,7.38,6.21,7.38
		c-1.55,0.43-1.42,2.8-1.42,2.8c0.4,2.96,5,3.03,5,3.03c3.11,0.81,2.76,3.05,2.76,3.05c-0.75,5.86-10.12,4.94-10.12,4.94
		c3.28-7.36,7.19-3.91,7.19-3.91c-2.01-6.73-6.84-2.53-6.84-2.53c-3.57-5.86-10.05-5.81-10.05-5.81c-7.23-0.81-6.97-3.97-6.97-3.97
		c-0.21-3.63,3.56-3.97,3.56-3.97c1.53,5.48,9.3,5.29,9.3,5.29s-1.99-6.9-8.09-7.19c0,0-7.34,0.3-6.56,5.98c0,0-0.24-0.91,0.17,1.61
		c0.42,2.52,7.76,4.37,7.76,4.37c5.43,1.38,5.87,1.95,5.87,1.95c4.26,2.3,3.11,8.28,0.06,11.77c-3.05,3.49-4.2,9.69-4.2,9.69
		l1.78,12.42c4.49-3.51,1.44-7.47,1.44-7.47c-1.03-2.31-1.32-4.37-1.32-4.37c0-4.77,4.32-4.32,4.32-4.32s2.01-0.34,2.18,2.13
		c0.17,2.47-3.41,1.84-3.41,1.84c0.66,3.57,9.86,1.9,9.86,1.9c5.87-1.04,4.77,1.55,4.77,1.55c-0.57,4.89,2.36,2.01,2.36,2.01
		c0.12,2.82,1.9,2.77,1.9,2.77c2.99,0.06,1.96-4.08,1.96-4.08c3.39,3.57,1.38,6.56,1.38,6.56c-1.56-1.55-2.42,1.04-2.42,1.04
		c-0.17,0.75-0.92,1.2-0.92,1.2c-1.67,1.27-2.76,0.63-2.76,0.63c2.07,2.47,4.37,2.18,4.37,2.18C271.61,139.47,270.98,134,270.98,134
		 M254.09,122.71c-0.11,1.49-1.58,3.65-4.2,3.25c0,0,2.07-0.92,2.16-3.6c0,0,0.26-2.61-3.36-2.93c0,0-2.79-0.26-3.91,1.03
		c0,0,1.15-1.92,4.31-2.01C252.25,118.36,254.24,120.78,254.09,122.71 M260.07,118.74c0,0-0.66,0.58-0.34,2.04c0,0,1.47,3.73-4,4.34
		c0,0,1.84-1.56,1.32-3.6c0,0-0.4-1.73-1.12-1.98c0,0,1.12-0.83,1.15-1.93c0,0,0-2.99-4.83-3.16c0,0-2.22,0-3.74,0.81
		c0,0,2.33-3.16,7.16-2.47c4.83,0.69,7.08,3.45,6.96,5.66C262.63,118.45,261.28,117.53,260.07,118.74"/>
	<path class="st1" d="M200.2,48.84c0,0,4.78-3.15,9.1,5.78c0,0-2.12,1.07-4.83-3.63C204.47,50.99,203.05,48.63,200.2,48.84"/>
	<path class="st1" d="M221.97,51.28c-0.57-2.04-3.08-1.93-3.08-1.93c2.1-1.64,1.12-4.89,1.12-4.89s-3.91,1.07-3.68,3.45
		c0,0-0.78-1.73-2.59-1.73c0,0-2.5-0.12-2.65,3.13c0,0,4.08-2.51,3.24,4.77h-0.01c-0.73,0-1.31,0.59-1.31,1.31
		c0,0.72,0.58,1.31,1.31,1.31c0.72,0,1.31-0.59,1.31-1.31c0-0.47-0.26-0.88-0.63-1.11c1.87-3.24,3.4-2.76,3.4-2.76
		c2.32,0.33,1.52,2.89,1.52,2.89C222.72,53.8,221.97,51.28,221.97,51.28"/>
	<path class="st1" d="M143.12,9.32l-1.21-2.76c0,0-18.06,10.47-18.23,26.34c0,0-3.16-11.96-6.21-7.99c0,0-2.3-5.41,3.74-5.18
		c0,0-7.36-4.49-8.57,3.74c0,0-3.05-1.61-5.64,0c-2.59,1.61-0.81,3.85-0.4,4.03c0,0-5.57,1.32-0.97,10.81c0,0-6.1-1.96-6.68,3.05
		c-0.58,5,5.93,2.3,4.14,0c0,0-0.46,1.32-1.32,0.4c0,0-2.07-1.5-0.92-2.08c0,0,2.37-2.33,5.06,1.5c0,0,2.94,4.78-3.79,6.04
		c0,0-2.13,0.81-7.07-2.7c0,0,2.36-2.24-1.79-3.34c0,0-2.53-0.4-3.28,0.34c0,0-1.04-1.04,3.62-2.3c0,0-7.88-4.42-13.05,2.94
		c0,0-3.91-7.07-6.9,6.9l-2.88,9.66c0,0-7.65-5.58-9.78,2.13c0,0-0.83,3.47,2.42,3.74c0,0,2.42,0,2.36-2.13c0,0,0.14-1.67-2.07-1.64
		c0,0-1.43,0.03-1.78,1.12c0,0-0.11-3.8,3.97-3.39c0,0,4.09,0.06,3.74,4.6c0,0-0.11,5.52-7.08,5.63c0,0-7.01,0.64-7.59,1.67
		c0,0,1.18-4.14,3.62-6.04c0,0-8.29-0.13-8.08,8.03c0,0-3.23-5.09-8.89-4.49c0,0-4.61,1.04-6.51,0.78c0,0-2.2,0-2.89-1.81
		c0,0-0.81,6.67,6.73,4.31c0,0-4.83,7.59,3.32,8.98c0,0-3.88-5.35,3.45-6.17c0,0,4.49-0.39,6.69,5.87c0,0-3.15-3.07-5.09-1.26
		c-1.94,1.81-0.13,3.97-0.13,3.97s-7.12-3.66-9.45,5.82c0,0,2.24-3.71,8.36-3.27c0,0,7.55,0.17,6.34,9.14
		c-0.22,1.66,0.77,2.14,2.33-3.28c0,0-1.81-16.87-0.47-18.55c1.34-1.68,3.88-2.29,6.6-2.33c0,0,11.5,0.95,11.65-8.46
		c0,0,0.17-2.41,3.58-3.36c0,0,2.55-0.6,2.97,2.67c0,0,1.77-4.96-2.89-5.39c0,0-2.37-0.09-3.76,2.33c0,0,2.93-13.54,14.58-13.28
		c0,0,5.43,0.17,8.67,2.5c3.23,2.33,7.46,1.64,7.46,1.64s4.92-1.47,4.96-5.05c0,0,0.3-1.68-1.12-4.19c-1.42-2.5-0.47-7.72-0.47-7.72
		s1.21-4.27,5.73-4.27c4.53,0,8.72,3.71,9.19,5.14c0,0-4.79-4.31-9.66-4.19c-4.87,0.13-4.53,7.55-4.53,7.55s0.3-2.42,2.85-3.88
		c0,0,0.82-0.86,0-1.42c0,0-0.09-0.78,1.64-0.26c0,0,0.99,0.87,3.06,0.91c0,0-2.03,1.64-1.12,2.8c0,0,0.26,0.86,2.63-0.13
		c0,0,2.55-2.16,5.78,1.16l1.98,1.47c0,0,0.38-18.81,17.83-26.31L143.12,9.32z"/>
	<path class="st1" d="M16.76,140.5c0,0,2.3,0.29,4.37-2.18c0,0-1.09,0.63-2.76-0.63c0,0-0.75-0.46-0.92-1.2c0,0-0.87-2.59-2.42-1.04
		c0,0-2.01-2.99,1.38-6.56c0,0-1.04,4.14,1.95,4.09c0,0,1.79,0.06,1.9-2.77c0,0,2.93,2.88,2.36-2.01c0,0-1.1-2.59,4.77-1.55
		c0,0,9.2,1.67,9.86-1.9c0,0-3.59,0.63-3.42-1.84c0.17-2.47,2.18-2.13,2.18-2.13s4.32-0.46,4.32,4.32c0,0-0.29,2.07-1.33,4.37
		c0,0-3.05,3.96,1.44,7.47l1.78-12.42c0,0-1.15-6.2-4.2-9.69c-3.05-3.48-4.2-9.47,0.06-11.77c0,0,0.43-0.57,5.87-1.95
		c0,0,7.34-1.85,7.76-4.37c0.41-2.52,0.17-1.61,0.17-1.61c0.78-5.68-6.56-5.98-6.56-5.98c-6.1,0.29-8.08,7.19-8.08,7.19
		s7.77,0.19,9.29-5.29c0,0,3.78,0.34,3.56,3.97c0,0,0.27,3.16-6.97,3.97c0,0-6.49-0.06-10.06,5.81c0,0-4.83-4.2-6.84,2.53
		c0,0,3.91-3.45,7.19,3.91c0,0-9.37,0.92-10.12-4.94c0,0-0.35-2.24,2.76-3.05c0,0,4.6-0.06,5-3.03c0,0,0.13-2.37-1.42-2.8
		c0,0,8.2,0.91,6.21-7.38c0,0-0.13,3.94-6.29,4.98c0,0-7.82,0.92-8.22,9.31c0,0-0.12,6.08,4.37,6.95c0,0-6.21,1.61-6.33,7.37
		c0,0-0.4,3.39,2.87,5.46c0,0-9.14,0.81-9.43,9.89C12.85,134,12.22,139.47,16.76,140.5 M34.73,118.45c3.17,0.08,4.31,2.01,4.31,2.01
		c-1.12-1.29-3.91-1.03-3.91-1.03c-3.62,0.32-3.37,2.93-3.37,2.93c0.09,2.68,2.16,3.6,2.16,3.6c-2.62,0.4-4.09-1.75-4.2-3.25
		C29.58,120.78,31.57,118.36,34.73,118.45 M21.19,118.45c-0.12-2.22,2.13-4.97,6.96-5.66c4.83-0.69,7.16,2.47,7.16,2.47
		c-1.52-0.81-3.74-0.81-3.74-0.81c-4.83,0.17-4.83,3.16-4.83,3.16c0.03,1.1,1.15,1.93,1.15,1.93c-0.71,0.26-1.12,1.98-1.12,1.98
		c-0.52,2.04,1.33,3.6,1.33,3.6c-5.47-0.62-4-4.34-4-4.34c0.32-1.46-0.34-2.04-0.34-2.04C22.54,117.53,21.19,118.45,21.19,118.45"/>
	<path class="st1" d="M83.62,48.84c0,0-4.79-3.15-9.1,5.78c0,0,2.11,1.07,4.83-3.63C79.35,50.99,80.77,48.63,83.62,48.84"/>
	<path class="st1" d="M61.85,51.28c0.57-2.04,3.08-1.93,3.08-1.93c-2.1-1.64-1.12-4.89-1.12-4.89s3.91,1.07,3.68,3.45
		c0,0,0.78-1.73,2.59-1.73c0,0,2.5-0.12,2.64,3.13c0,0-4.08-2.51-3.23,4.77h0.01c0.72,0,1.31,0.59,1.31,1.31
		c0,0.72-0.59,1.31-1.31,1.31c-0.72,0-1.31-0.59-1.31-1.31c0-0.47,0.25-0.88,0.63-1.11c-1.87-3.24-3.39-2.76-3.39-2.76
		c-2.33,0.33-1.53,2.89-1.53,2.89C61.1,53.8,61.85,51.28,61.85,51.28"/>
	<path class="st1" d="M140.7,275.86l1.21,2.76c0,0,18.06-10.47,18.23-26.35c0,0,3.16,11.97,6.21,8c0,0,2.3,5.41-3.74,5.18
		c0,0,7.36,4.49,8.57-3.74c0,0,3.04,1.61,5.63,0c2.59-1.61,0.8-3.85,0.4-4.03c0,0,5.57-1.32,0.97-10.81c0,0,6.1,1.96,6.68-3.05
		c0.57-5-5.92-2.3-4.14,0c0,0,0.46-1.32,1.32-0.4c0,0,2.07,1.5,0.92,2.07c0,0-2.37,2.33-5.06-1.49c0,0-2.93-4.77,3.79-6.04
		c0,0,2.13-0.81,7.08,2.7c0,0-2.36,2.24,1.78,3.34c0,0,2.53,0.4,3.28-0.34c0,0,1.04,1.03-3.62,2.3c0,0,7.88,4.42,13.06-2.93
		c0,0,3.91,7.07,6.9-6.91l2.88-9.66c0,0,7.65,5.57,9.77-2.13c0,0,0.83-3.48-2.41-3.74c0,0-2.42,0-2.37,2.13c0,0-0.14,1.67,2.08,1.64
		c0,0,1.44-0.03,1.78-1.12c0,0,0.12,3.8-3.97,3.4c0,0-4.08-0.06-3.73-4.61c0,0,0.11-5.52,7.07-5.63c0,0,7.02-0.63,7.59-1.67
		c0,0-1.18,4.14-3.62,6.04c0,0,8.3,0.13,8.08-8.02c0,0,3.24,5.09,8.89,4.49c0,0,4.61-1.04,6.51-0.77c0,0,2.2,0,2.89,1.81
		c0,0,0.81-6.67-6.73-4.31c0,0,4.83-7.59-3.32-8.97c0,0,3.88,5.35-3.45,6.17c0,0-4.49,0.39-6.68-5.87c0,0,3.15,3.07,5.09,1.25
		c1.94-1.81,0.13-3.97,0.13-3.97s7.12,3.67,9.45-5.82c0,0-2.24,3.71-8.37,3.28c0,0-7.54-0.18-6.34-9.15
		c0.22-1.67-0.77-2.14-2.33,3.28c0,0,1.81,16.86,0.47,18.55c-1.34,1.68-3.88,2.28-6.6,2.33c0,0-11.5-0.95-11.65,8.46
		c0,0-0.17,2.41-3.58,3.36c0,0-2.54,0.6-2.97-2.67c0,0-1.77,4.96,2.89,5.39c0,0,2.37,0.09,3.75-2.33c0,0-2.93,13.54-14.57,13.28
		c0,0-5.44-0.17-8.67-2.5c-3.24-2.33-7.46-1.64-7.46-1.64s-4.92,1.47-4.96,5.05c0,0-0.3,1.69,1.12,4.18
		c1.42,2.5,0.47,7.72,0.47,7.72s-1.2,4.27-5.74,4.27c-4.53,0-8.71-3.71-9.19-5.14c0,0,4.79,4.32,9.66,4.19
		c4.88-0.13,4.53-7.55,4.53-7.55s-0.3,2.42-2.85,3.88c0,0-0.82,0.86,0,1.42c0,0,0.08,0.78-1.64,0.26c0,0-0.99-0.87-3.06-0.91
		c0,0,2.03-1.63,1.12-2.8c0,0-0.26-0.86-2.63,0.13c0,0-2.54,2.16-5.78-1.16l-1.98-1.47c0,0-0.37,18.81-17.83,26.31L140.7,275.86z"/>
	<path class="st1" d="M267.06,144.67c0,0-2.3-0.28-4.37,2.19c0,0,1.09-0.64,2.76,0.63c0,0,0.75,0.46,0.92,1.21
		c0,0,0.86,2.59,2.42,1.04c0,0,2.01,2.99-1.38,6.55c0,0,1.04-4.14-1.96-4.08c0,0-1.78-0.06-1.9,2.76c0,0-2.93-2.87-2.36,2.02
		c0,0,1.1,2.59-4.77,1.55c0,0-9.2-1.67-9.86,1.9c0,0,3.59-0.64,3.41,1.84c-0.17,2.47-2.18,2.13-2.18,2.13s-4.31,0.46-4.31-4.31
		c0,0,0.29-2.07,1.32-4.37c0,0,3.05-3.97-1.44-7.47l-1.78,12.42c0,0,1.15,6.2,4.2,9.69c3.05,3.49,4.2,9.46-0.06,11.77
		c0,0-0.43,0.58-5.87,1.96c0,0-7.35,1.84-7.76,4.37c-0.42,2.52-0.17,1.61-0.17,1.61c-0.78,5.68,6.56,5.98,6.56,5.98
		c6.09-0.29,8.09-7.19,8.09-7.19s-7.77-0.19-9.3,5.29c0,0-3.77-0.34-3.56-3.97c0,0-0.26-3.16,6.97-3.97c0,0,6.49,0.06,10.05-5.81
		c0,0,4.83,4.2,6.84-2.53c0,0-3.91,3.45-7.19-3.91c0,0,9.37-0.92,10.12,4.95c0,0,0.35,2.24-2.76,3.05c0,0-4.6,0.06-5,3.02
		c0,0-0.13,2.37,1.42,2.8c0,0-8.19-0.91-6.21,7.37c0,0,0.13-3.94,6.29-4.98c0,0,7.82-0.92,8.22-9.32c0,0,0.12-6.08-4.37-6.95
		c0,0,6.21-1.61,6.32-7.36c0,0,0.4-3.4-2.88-5.46c0,0,9.15-0.8,9.44-9.89C270.98,151.17,271.61,145.71,267.06,144.67 M249.09,166.73
		c-3.16-0.09-4.31-2.01-4.31-2.01c1.12,1.29,3.91,1.03,3.91,1.03c3.62-0.32,3.36-2.93,3.36-2.93c-0.09-2.68-2.16-3.6-2.16-3.6
		c2.61-0.4,4.09,1.76,4.2,3.26C254.24,164.4,252.26,166.81,249.09,166.73 M262.63,166.73c0.12,2.22-2.13,4.98-6.96,5.66
		c-4.83,0.69-7.16-2.48-7.16-2.48c1.53,0.81,3.75,0.81,3.75,0.81c4.82-0.17,4.82-3.16,4.82-3.16c-0.03-1.1-1.15-1.93-1.15-1.93
		c0.72-0.26,1.12-1.98,1.12-1.98c0.52-2.04-1.32-3.6-1.32-3.6c5.46,0.62,4,4.34,4,4.34c-0.31,1.47,0.34,2.05,0.34,2.05
		C261.28,167.65,262.63,166.73,262.63,166.73"/>
	<path class="st1" d="M200.2,236.34c0,0,4.78,3.15,9.1-5.79c0,0-2.12-1.07-4.83,3.63C204.47,234.18,203.05,236.55,200.2,236.34"/>
	<path class="st1" d="M221.97,233.91c-0.57,2.04-3.08,1.92-3.08,1.92c2.1,1.64,1.12,4.89,1.12,4.89s-3.91-1.06-3.68-3.45
		c0,0-0.78,1.73-2.59,1.73c0,0-2.5,0.12-2.65-3.14c0,0,4.08,2.52,3.24-4.76h-0.01c-0.73,0-1.31-0.58-1.31-1.31
		c0-0.73,0.58-1.31,1.31-1.31c0.72,0,1.31,0.58,1.31,1.31c0,0.47-0.26,0.88-0.63,1.11c1.87,3.24,3.4,2.76,3.4,2.76
		c2.32-0.33,1.52-2.89,1.52-2.89C222.72,231.38,221.97,233.91,221.97,233.91"/>
	<path class="st1" d="M143.12,275.86l-1.21,2.76c0,0-18.06-10.47-18.23-26.35c0,0-3.16,11.97-6.21,8c0,0-2.3,5.41,3.74,5.18
		c0,0-7.36,4.49-8.57-3.74c0,0-3.05,1.61-5.64,0c-2.59-1.61-0.81-3.85-0.4-4.03c0,0-5.57-1.32-0.97-10.81c0,0-6.1,1.96-6.68-3.05
		c-0.58-5,5.93-2.3,4.14,0c0,0-0.46-1.32-1.32-0.4c0,0-2.07,1.5-0.92,2.07c0,0,2.37,2.33,5.06-1.49c0,0,2.94-4.77-3.79-6.04
		c0,0-2.13-0.81-7.07,2.7c0,0,2.36,2.24-1.79,3.34c0,0-2.53,0.4-3.28-0.34c0,0-1.04,1.03,3.62,2.3c0,0-7.88,4.42-13.05-2.93
		c0,0-3.91,7.07-6.9-6.91l-2.88-9.66c0,0-7.65,5.57-9.78-2.13c0,0-0.83-3.48,2.42-3.74c0,0,2.42,0,2.36,2.13
		c0,0,0.14,1.67-2.07,1.64c0,0-1.43-0.03-1.78-1.12c0,0-0.11,3.8,3.97,3.4c0,0,4.09-0.06,3.74-4.61c0,0-0.11-5.52-7.08-5.63
		c0,0-7.01-0.63-7.59-1.67c0,0,1.18,4.14,3.62,6.04c0,0-8.29,0.13-8.08-8.02c0,0-3.23,5.09-8.89,4.49c0,0-4.61-1.04-6.51-0.77
		c0,0-2.2,0-2.89,1.81c0,0-0.81-6.67,6.73-4.31c0,0-4.83-7.59,3.32-8.97c0,0-3.88,5.35,3.45,6.17c0,0,4.49,0.39,6.69-5.87
		c0,0-3.15,3.07-5.09,1.25c-1.94-1.81-0.13-3.97-0.13-3.97s-7.12,3.67-9.45-5.82c0,0,2.24,3.71,8.36,3.28c0,0,7.55-0.18,6.34-9.15
		c-0.22-1.67,0.77-2.14,2.33,3.28c0,0-1.81,16.86-0.47,18.55c1.34,1.68,3.88,2.28,6.6,2.33c0,0,11.5-0.95,11.65,8.46
		c0,0,0.17,2.41,3.58,3.36c0,0,2.55,0.6,2.97-2.67c0,0,1.77,4.96-2.89,5.39c0,0-2.37,0.09-3.76-2.33c0,0,2.93,13.54,14.58,13.28
		c0,0,5.43-0.17,8.67-2.5c3.23-2.33,7.46-1.64,7.46-1.64s4.92,1.47,4.96,5.05c0,0,0.3,1.69-1.12,4.18c-1.42,2.5-0.47,7.72-0.47,7.72
		s1.21,4.27,5.73,4.27c4.53,0,8.72-3.71,9.19-5.14c0,0-4.79,4.32-9.66,4.19c-4.87-0.13-4.53-7.55-4.53-7.55s0.3,2.42,2.85,3.88
		c0,0,0.82,0.86,0,1.42c0,0-0.09,0.78,1.64,0.26c0,0,0.99-0.87,3.06-0.91c0,0-2.03-1.63-1.12-2.8c0,0,0.26-0.86,2.63,0.13
		c0,0,2.55,2.16,5.78-1.16l1.98-1.47c0,0,0.38,18.81,17.83,26.31L143.12,275.86z"/>
	<path class="st1" d="M12.85,151.17c0.29,9.09,9.43,9.89,9.43,9.89c-3.28,2.07-2.87,5.46-2.87,5.46c0.11,5.75,6.32,7.36,6.32,7.36
		c-4.48,0.87-4.36,6.95-4.36,6.95c0.4,8.4,8.22,9.32,8.22,9.32c6.16,1.04,6.29,4.98,6.29,4.98c1.98-8.28-6.21-7.37-6.21-7.37
		c1.55-0.43,1.42-2.8,1.42-2.8c-0.4-2.96-5-3.02-5-3.02c-3.11-0.81-2.76-3.05-2.76-3.05c0.75-5.87,10.12-4.95,10.12-4.95
		c-3.28,7.36-7.19,3.91-7.19,3.91c2.01,6.73,6.84,2.53,6.84,2.53c3.57,5.87,10.06,5.81,10.06,5.81c7.23,0.8,6.97,3.97,6.97,3.97
		c0.21,3.63-3.56,3.97-3.56,3.97c-1.52-5.48-9.29-5.29-9.29-5.29s1.99,6.9,8.08,7.19c0,0,7.33-0.3,6.56-5.98c0,0,0.24,0.9-0.17-1.61
		c-0.42-2.52-7.76-4.37-7.76-4.37c-5.43-1.38-5.87-1.96-5.87-1.96c-4.26-2.3-3.11-8.28-0.06-11.77c3.05-3.49,4.2-9.69,4.2-9.69
		l-1.78-12.42c-4.49,3.51-1.44,7.47-1.44,7.47c1.04,2.3,1.32,4.37,1.32,4.37c0,4.77-4.31,4.31-4.31,4.31s-2.01,0.35-2.18-2.13
		c-0.17-2.47,3.42-1.84,3.42-1.84c-0.66-3.57-9.86-1.9-9.86-1.9c-5.87,1.03-4.77-1.55-4.77-1.55c0.58-4.89-2.36-2.02-2.36-2.02
		c-0.12-2.82-1.9-2.76-1.9-2.76c-2.99-0.06-1.95,4.08-1.95,4.08c-3.39-3.56-1.38-6.55-1.38-6.55c1.55,1.55,2.42-1.04,2.42-1.04
		c0.17-0.75,0.92-1.21,0.92-1.21c1.67-1.27,2.76-0.63,2.76-0.63c-2.07-2.47-4.37-2.19-4.37-2.19
		C12.22,145.71,12.85,151.17,12.85,151.17 M29.73,162.48c0.11-1.5,1.58-3.65,4.2-3.26c0,0-2.07,0.92-2.16,3.6
		c0,0-0.26,2.61,3.37,2.93c0,0,2.79,0.26,3.91-1.03c0,0-1.15,1.93-4.31,2.01C31.57,166.81,29.58,164.4,29.73,162.48 M23.75,166.44
		c0,0,0.66-0.57,0.34-2.05c0,0-1.47-3.73,4-4.34c0,0-1.84,1.55-1.33,3.6c0,0,0.4,1.73,1.12,1.98c0,0-1.12,0.83-1.15,1.93
		c0,0,0,2.99,4.83,3.16c0,0,2.21,0,3.74-0.81c0,0-2.33,3.16-7.16,2.48c-4.83-0.69-7.07-3.45-6.96-5.66
		C21.19,166.73,22.54,167.65,23.75,166.44"/>
	<path class="st1" d="M83.62,236.34c0,0-4.79,3.15-9.1-5.79c0,0,2.11-1.07,4.83,3.63C79.35,234.18,80.77,236.55,83.62,236.34"/>
	<path class="st1" d="M61.85,233.91c0.57,2.04,3.08,1.92,3.08,1.92c-2.1,1.64-1.12,4.89-1.12,4.89s3.91-1.06,3.68-3.45
		c0,0,0.78,1.73,2.59,1.73c0,0,2.5,0.12,2.64-3.14c0,0-4.08,2.52-3.23-4.76h0.01c0.72,0,1.31-0.58,1.31-1.31
		c0-0.73-0.59-1.31-1.31-1.31c-0.72,0-1.31,0.58-1.31,1.31c0,0.47,0.25,0.88,0.63,1.11c-1.87,3.24-3.39,2.76-3.39,2.76
		c-2.33-0.33-1.53-2.89-1.53-2.89C61.1,231.38,61.85,233.91,61.85,233.91"/>
	<path class="st1" d="M32.39,149.13c0,0-3.21,0.09-3.3-2.64c0,0,0-3.16,4.89-3.08l0.15-0.09c0.14,1.34,0.58,2.32,1.11,2.32
		c0.63,0,1.15-1.43,1.15-3.19c0-1.76-0.52-3.19-1.15-3.19c-0.56,0-1.03,1.1-1.14,2.56l-0.12-0.07c-4.89,0.09-4.89-3.08-4.89-3.08
		c0.08-2.73,3.3-2.65,3.3-2.65c3.07,0.15,3.75,1.55,3.75,1.55c-1.44-5.55-6.3-5-6.3-5c-6.19,0.2-5.21,6.99-5.21,6.99
		c-2.33-1.12-7.16,3.02-7.16,3.02s4.83,4.14,7.16,3.02c0,0-0.98,6.79,5.21,6.99c0,0,4.86,0.55,6.3-5
		C36.14,147.58,35.47,148.99,32.39,149.13 M23.47,142.58c0,0,3.09-2.52,6.15,0C29.62,142.58,26.58,145.08,23.47,142.58"/>
	<path class="st1" d="M247.85,147.58c1.43,5.55,6.3,5,6.3,5c6.18-0.2,5.2-6.99,5.2-6.99c2.33,1.12,7.16-3.02,7.16-3.02
		s-4.83-4.14-7.16-3.02c0,0,0.98-6.79-5.2-6.99c0,0-4.86-0.55-6.3,5c0,0,0.67-1.4,3.74-1.55c0,0,3.21-0.08,3.3,2.65
		c0,0,0,3.16-4.89,3.08l-0.12,0.07c-0.11-1.46-0.57-2.56-1.13-2.56c-0.64,0-1.16,1.42-1.16,3.19c0,1.76,0.52,3.19,1.16,3.19
		c0.52,0,0.97-0.98,1.1-2.32l0.15,0.09c4.89-0.09,4.89,3.08,4.89,3.08c-0.09,2.73-3.3,2.64-3.3,2.64
		C248.52,148.99,247.85,147.58,247.85,147.58 M254.37,142.58c3.06-2.52,6.15,0,6.15,0C257.41,145.08,254.37,142.58,254.37,142.58"/>
	<path class="st0" d="M232.34,142.59c0,50.62-40.49,91.66-90.43,91.66c-49.94,0-90.43-41.04-90.43-91.66
		c0-50.62,40.49-91.66,90.43-91.66C191.85,50.93,232.34,91.97,232.34,142.59"/>
	<path class="st1" d="M74.98,165.01h-1.42v-0.22h3.39v1.5c0.26-0.75,0.85-1.87,2.39-1.87c0.31,0,2.07,0.02,2.96,1.72
		c0.51-0.97,1.18-1.72,2.66-1.72c1.07,0,1.95,0.39,2.5,0.98c0.69,0.77,0.85,1.54,0.85,2.82v4.95h1.42v0.22h-4.77v-0.22h1.38v-5.76
		c0-1.32-0.06-2.78-1.66-2.78c-0.77,0-1.66,0.38-2.27,1.82c0.16,0.49,0.22,1.12,0.22,1.77v4.95h1.42v0.22h-4.77v-0.22h1.38v-5.64
		c0-1.79-0.22-2.9-1.5-2.9c-1.66,0-2.21,1.97-2.21,3.12v5.42h1.38v0.22h-4.77v-0.22h1.42V165.01z"/>
	<path class="st1" d="M97.77,172.19c0,0.91,0.16,1.15,0.49,1.15c0.37,0,0.55-0.32,0.71-0.59l0.22,0.1c-0.26,0.45-0.43,0.77-1.3,0.77
		c-1.24,0-1.64-0.67-1.82-0.93c-0.41,0.57-0.93,1.08-2.15,1.08c-1.72,0-3.08-0.89-3.08-2.23c0-1.16,0.69-1.64,2.29-2.07l0.97-0.28
		c1.34-0.37,1.77-1.24,1.77-2.31c0-1.38-0.14-2.25-1.32-2.25c-0.65,0-0.79,0.26-0.79,0.71c0,0.12,0.06,0.61,0.06,0.73
		c0,0.65-0.75,0.65-0.93,0.65c-0.37,0-1.04-0.04-1.04-0.61c0-0.73,0.98-1.69,2.6-1.69c1.32,0,3.31,0.69,3.31,4.18V172.19z
		 M95.79,168.24c-0.39,0.63-0.83,0.87-1.54,1.2c-1.03,0.5-1.38,0.65-1.38,2.13c0,1.48,0.37,1.91,1.28,1.91
		c1.01,0,1.48-0.57,1.77-1.04c-0.14-0.44-0.14-0.85-0.14-0.99V168.24z"/>
	<path class="st1" d="M101.7,165.01h-1.42v-0.22h3.39v1.5c0.26-0.75,0.91-1.87,2.39-1.87c1.12,0,2.03,0.41,2.5,1.01
		c0.69,0.85,0.79,1.83,0.79,2.8v4.95h1.42v0.22H106v-0.22h1.38v-5.64c0-1.79-0.22-2.9-1.5-2.9c-1.6,0-2.21,1.83-2.21,3.12v5.42h1.38
		v0.22h-4.77v-0.22h1.42V165.01z"/>
	<path class="st1" d="M115.4,175.3c0,2.25-0.87,3.94-3.19,3.94c-1.81,0-2.17-1.14-2.17-1.52c0-0.51,0.43-0.67,0.99-0.67
		c0.49,0,0.92,0.12,0.92,0.57c0,0.37-0.12,0.57-0.12,0.9c0,0.36,0.24,0.5,0.63,0.5c0.51,0,0.97-0.34,0.97-1.56v-12.46h-1.42v-0.22
		h3.39V175.3z M114.3,158.8c0.71,0,1.28,0.57,1.28,1.28c0,0.71-0.57,1.28-1.28,1.28s-1.28-0.59-1.28-1.28
		C113.02,159.39,113.59,158.8,114.3,158.8"/>
	<path class="st1" d="M125.14,172.19c0,0.91,0.16,1.15,0.49,1.15c0.38,0,0.55-0.32,0.71-0.59l0.22,0.1
		c-0.26,0.45-0.43,0.77-1.3,0.77c-1.24,0-1.64-0.67-1.81-0.93c-0.41,0.57-0.93,1.08-2.15,1.08c-1.71,0-3.07-0.89-3.07-2.23
		c0-1.16,0.69-1.64,2.29-2.07l0.97-0.28c1.34-0.37,1.78-1.24,1.78-2.31c0-1.38-0.14-2.25-1.32-2.25c-0.65,0-0.79,0.26-0.79,0.71
		c0,0.12,0.06,0.61,0.06,0.73c0,0.65-0.75,0.65-0.93,0.65c-0.37,0-1.04-0.04-1.04-0.61c0-0.73,0.99-1.69,2.6-1.69
		c1.32,0,3.31,0.69,3.31,4.18V172.19z M123.17,168.24c-0.4,0.63-0.83,0.87-1.54,1.2c-1.03,0.5-1.38,0.65-1.38,2.13
		c0,1.48,0.38,1.91,1.28,1.91c1.01,0,1.48-0.57,1.77-1.04c-0.14-0.44-0.14-0.85-0.14-0.99V168.24z"/>
	<path class="st1" d="M129.08,165.01h-1.42v-0.22h3.39v1.14c0.24-0.63,0.59-1.52,1.91-1.52c1.32,0,1.83,1.01,1.83,1.54
		c0,0.41-0.32,0.81-1.05,0.81c-0.59,0-0.99-0.3-0.99-0.69c0-0.26,0.08-0.59,0.08-0.83c0-0.3-0.2-0.43-0.47-0.43
		c-0.79,0-1.32,1.14-1.32,2.9v5.46h1.42v0.22h-4.81v-0.22h1.42V165.01z"/>
	<path class="st1" d="M143.57,171.67c-0.55,1.34-1.99,2.09-3.41,2.09c-2.35,0-4.36-1.67-4.36-4.44c0-2.74,2.05-4.91,4.22-4.91
		c1.64,0,3.59,1.44,3.61,4.18h-5.62v0.71c0,2.17,0,4.24,2.15,4.24c0.93,0,2.45-0.38,3.21-1.95L143.57,171.67z M141.76,168.38
		c-0.02-2.84-0.33-3.75-1.81-3.75c-1.8,0-1.91,1.44-1.93,3.75H141.76z"/>
	<path class="st1" d="M144.65,170.53h0.16c0.24,0.95,0.43,1.58,1.1,2.21c0.55,0.57,1.16,0.81,1.93,0.81c1.42,0,2.09-0.79,2.09-1.62
		c0-0.89-0.69-1.22-2.33-2.01c-1.26-0.61-2.39-1.12-2.39-2.9c0-1.68,1.34-2.6,2.64-2.6c0.55,0,0.97,0.16,1.26,0.28
		c0.41,0.18,0.53,0.22,0.69,0.22c0.18,0,0.26-0.06,0.32-0.12h0.16v2.07h-0.16c-0.32-1.8-1.42-2.23-2.23-2.23
		c-0.53,0-1.6,0.24-1.6,1.36c0,0.93,0.57,1.4,2.31,2.29c1.71,0.87,2.56,1.3,2.56,2.56c0,1.56-1.52,2.92-3.41,2.92
		c-1.08,0-2.09-0.61-2.52-0.61c-0.2,0-0.35,0.08-0.43,0.24h-0.16V170.53z"/>
	<path class="st1" d="M165.82,173.17h1.42v0.22h-3.39v-1.09c-0.22,0.38-0.73,1.3-2.07,1.3c-1.87,0-4.06-1.91-4.06-4.59
		c0-2.74,2.31-4.59,4.1-4.59c1.28,0,1.8,0.81,2.03,1.16v-6.49h-1.42v-0.22h1.42h1.97V173.17z M163.26,165.19
		c-0.4-0.35-0.89-0.55-1.42-0.55c-1.81,0-1.91,1.87-1.91,4.08c0,3.19,0.18,4.67,1.87,4.67c0.3,0,1.18-0.04,1.77-1.04
		c0.37-0.61,0.43-1.62,0.43-3.37C164.01,166.53,163.99,165.86,163.26,165.19"/>
	<path class="st1" d="M169.74,165.01h-1.42v-0.22h3.39v5.97c0,1.91,0.45,2.62,1.48,2.62c1.81,0,2.23-2.05,2.23-3.1v-5.28h-1.38
		v-0.22h3.35v8.38h1.42v0.22h-3.39v-1.66c-0.3,0.87-0.81,1.87-2.41,1.87c-1.2,0-1.99-0.41-2.56-1.06c-0.55-0.63-0.71-1.54-0.71-2.74
		V165.01z"/>
	<polygon class="st1" points="181.69,159.09 180.27,159.09 180.27,158.87 183.66,158.87 183.66,173.17 185.08,173.17 185.08,173.39 
		180.27,173.39 180.27,173.17 181.69,173.17 	"/>
	<path class="st1" d="M194.25,171.67c-0.65,1.4-1.95,2.09-3.51,2.09c-2.27,0-4.28-1.67-4.28-4.44c0-2.49,1.77-4.91,4.4-4.91
		c1.99,0,2.96,1.08,2.96,1.74c0,0.61-0.65,0.69-1.09,0.69c-0.47,0-1.06-0.1-1.06-0.71c0-0.24,0.06-0.47,0.06-0.71
		c0-0.55-0.41-0.79-0.97-0.79c-1.64,0-2.09,1.32-2.09,4.52c0,3.57,0.69,4.4,2.09,4.4c1.4,0,2.66-0.67,3.29-1.95L194.25,171.67z"/>
	<path class="st1" d="M202.72,171.67c-0.55,1.34-1.99,2.09-3.41,2.09c-2.35,0-4.36-1.67-4.36-4.44c0-2.74,2.05-4.91,4.22-4.91
		c1.64,0,3.59,1.44,3.61,4.18h-5.62v0.71c0,2.17,0,4.24,2.15,4.24c0.93,0,2.45-0.38,3.21-1.95L202.72,171.67z M200.91,168.38
		c-0.02-2.84-0.34-3.75-1.82-3.75c-1.79,0-1.91,1.44-1.93,3.75H200.91z"/>
	<path class="st1" d="M203.8,170.53h0.16c0.24,0.95,0.43,1.58,1.1,2.21c0.55,0.57,1.16,0.81,1.93,0.81c1.42,0,2.09-0.79,2.09-1.62
		c0-0.89-0.69-1.22-2.33-2.01c-1.26-0.61-2.39-1.12-2.39-2.9c0-1.68,1.34-2.6,2.64-2.6c0.55,0,0.97,0.16,1.26,0.28
		c0.41,0.18,0.53,0.22,0.69,0.22c0.18,0,0.26-0.06,0.32-0.12h0.16v2.07h-0.16c-0.32-1.8-1.42-2.23-2.23-2.23
		c-0.53,0-1.6,0.24-1.6,1.36c0,0.93,0.57,1.4,2.31,2.29c1.72,0.87,2.56,1.3,2.56,2.56c0,1.56-1.52,2.92-3.41,2.92
		c-1.09,0-2.09-0.61-2.52-0.61c-0.2,0-0.35,0.08-0.43,0.24h-0.16V170.53z"/>
	<path class="st1" d="M125.16,87.14h-3.41v-0.42h11.56v0.42h-3.45v26.16h2.61c5.08,0,9.59-3.03,10.58-8.19h0.3v8.61h-21.61v-0.42
		h3.41V87.14z"/>
	<path class="st1" d="M160.22,111.4c0,1.74,0.31,2.2,0.95,2.2c0.72,0,1.06-0.61,1.37-1.14l0.42,0.19c-0.49,0.87-0.83,1.48-2.5,1.48
		c-2.39,0-3.15-1.29-3.49-1.78c-0.79,1.1-1.78,2.09-4.13,2.09c-3.3,0-5.91-1.71-5.91-4.28c0-2.24,1.33-3.15,4.4-3.98l1.85-0.53
		c2.58-0.72,3.41-2.39,3.41-4.44c0-2.65-0.26-4.32-2.54-4.32c-1.25,0-1.51,0.49-1.51,1.36c0,0.23,0.11,1.18,0.11,1.4
		c0,1.25-1.44,1.25-1.78,1.25c-0.72,0-2.01-0.08-2.01-1.18c0-1.4,1.9-3.26,5.01-3.26c2.54,0,6.37,1.33,6.37,8.04V111.4z
		 M156.43,103.82c-0.76,1.21-1.59,1.67-2.96,2.31c-1.97,0.95-2.65,1.25-2.65,4.09c0,2.84,0.72,3.68,2.46,3.68
		c1.93,0,2.84-1.1,3.41-2.01c-0.26-0.83-0.26-1.63-0.26-1.89V103.82z"/>
	<polygon class="st1" points="76.62,127.19 73.17,127.19 73.17,126.77 81.77,126.77 87.73,146.37 94.78,126.77 103.27,126.77 
		103.27,127.19 99.82,127.19 99.82,153.34 103.27,153.34 103.27,153.76 91.7,153.76 91.7,153.34 95.12,153.34 95.12,127.19 
		85.45,154.07 85.11,154.07 77.04,127.19 77.04,153.34 80.6,153.34 80.6,153.76 73.17,153.76 73.17,153.34 76.62,153.34 	"/>
	<path class="st1" d="M119.49,151.45c0,1.74,0.3,2.2,0.95,2.2c0.72,0,1.06-0.61,1.36-1.14l0.42,0.19c-0.49,0.87-0.83,1.48-2.5,1.48
		c-2.39,0-3.15-1.29-3.49-1.78c-0.8,1.1-1.78,2.09-4.13,2.09c-3.3,0-5.91-1.71-5.91-4.28c0-2.24,1.33-3.15,4.4-3.98l1.86-0.53
		c2.58-0.72,3.41-2.39,3.41-4.43c0-2.66-0.26-4.32-2.54-4.32c-1.25,0-1.52,0.49-1.52,1.36c0,0.23,0.11,1.17,0.11,1.4
		c0,1.25-1.44,1.25-1.78,1.25c-0.72,0-2.01-0.08-2.01-1.17c0-1.4,1.9-3.26,5-3.26c2.54,0,6.37,1.33,6.37,8.04V151.45z M115.7,143.87
		c-0.76,1.21-1.59,1.67-2.96,2.31c-1.97,0.95-2.65,1.25-2.65,4.09c0,2.84,0.72,3.68,2.46,3.68c1.93,0,2.84-1.1,3.41-2.01
		c-0.27-0.84-0.27-1.63-0.27-1.9V143.87z"/>
	<path class="st1" d="M140.19,153.34h2.73v0.42h-6.52v-2.09c-0.42,0.72-1.4,2.5-3.98,2.5c-3.6,0-7.81-3.68-7.81-8.83
		c0-5.27,4.44-8.83,7.89-8.83c2.47,0,3.45,1.55,3.9,2.23v-12.47h-2.73v-0.42h2.73h3.79V153.34z M135.26,137.99
		c-0.76-0.68-1.71-1.06-2.73-1.06c-3.49,0-3.68,3.6-3.68,7.85c0,6.14,0.34,8.98,3.6,8.98c0.57,0,2.27-0.08,3.41-2.01
		c0.72-1.18,0.83-3.11,0.83-6.48C136.7,140.57,136.66,139.28,135.26,137.99"/>
	<path class="st1" d="M148.15,137.65h-2.73v-0.42h6.52v2.2c0.45-1.21,1.14-2.92,3.68-2.92c2.54,0,3.52,1.93,3.52,2.96
		c0,0.8-0.61,1.55-2.01,1.55c-1.14,0-1.89-0.57-1.89-1.33c0-0.49,0.15-1.14,0.15-1.59c0-0.57-0.38-0.83-0.91-0.83
		c-1.51,0-2.54,2.2-2.54,5.57v10.5h2.73v0.42h-9.25v-0.42h2.73V137.65z"/>
	<path class="st1" d="M163.65,137.65h-2.73v-0.42h6.52v16.11h2.73v0.42h-9.25v-0.42h2.73V137.65z M165.32,125.71
		c1.37,0,2.46,1.1,2.46,2.46c0,1.36-1.1,2.46-2.46,2.46c-1.36,0-2.46-1.14-2.46-2.46C162.86,126.85,163.96,125.71,165.32,125.71"/>
	<path class="st1" d="M175.52,137.65h-2.73v-0.42h6.52v2.88c0.49-1.44,1.74-3.6,4.59-3.6c2.16,0,3.91,0.8,4.82,1.93
		c1.33,1.63,1.51,3.53,1.51,5.38v9.51h2.73v0.42h-9.18v-0.42h2.65V142.5c0-3.45-0.42-5.57-2.88-5.57c-3.07,0-4.24,3.53-4.24,5.99
		v10.42h2.65v0.42h-9.17v-0.42h2.73V137.65z"/>
	<path class="st1" d="M208.65,151.45c0,1.74,0.3,2.2,0.95,2.2c0.72,0,1.06-0.61,1.37-1.14l0.42,0.19c-0.5,0.87-0.84,1.48-2.5,1.48
		c-2.39,0-3.15-1.29-3.49-1.78c-0.79,1.1-1.78,2.09-4.13,2.09c-3.3,0-5.91-1.71-5.91-4.28c0-2.24,1.32-3.15,4.4-3.98l1.86-0.53
		c2.58-0.72,3.41-2.39,3.41-4.43c0-2.66-0.26-4.32-2.54-4.32c-1.25,0-1.51,0.49-1.51,1.36c0,0.23,0.11,1.17,0.11,1.4
		c0,1.25-1.44,1.25-1.78,1.25c-0.72,0-2.01-0.08-2.01-1.17c0-1.4,1.89-3.26,5-3.26c2.54,0,6.37,1.33,6.37,8.04V151.45z
		 M204.86,143.87c-0.76,1.21-1.59,1.67-2.96,2.31c-1.97,0.95-2.65,1.25-2.65,4.09c0,2.84,0.72,3.68,2.46,3.68
		c1.93,0,2.84-1.1,3.41-2.01c-0.26-0.84-0.26-1.63-0.26-1.9V143.87z"/>
</g>
</svg>
